<svg width="137" height="107" viewBox="0 0 137 107" fill="none" xmlns="http://www.w3.org/2000/svg">
<path d="M125.583 0H11.4167C5.11372 0 0 5.13504 0 11.4643V95.5357C0 101.865 5.11372 107 11.4167 107H125.583C131.886 107 137 101.865 137 95.5357V11.4643C137 5.13504 131.886 0 125.583 0ZM125.583 95.5357H11.4167V11.4643H125.583V95.5357ZM49.4722 53.5C57.8682 53.5 64.6944 46.6453 64.6944 38.2143C64.6944 29.7833 57.8682 22.9286 49.4722 22.9286C41.0762 22.9286 34.25 29.7833 34.25 38.2143C34.25 46.6453 41.0762 53.5 49.4722 53.5ZM28.1611 84.0714H70.7833C73.7326 84.0714 76.1111 82.0174 76.1111 79.4857V74.9C76.1111 67.3049 68.9519 61.1429 60.1278 61.1429C57.559 61.1429 55.68 63.0536 49.4722 63.0536C43.0741 63.0536 41.5281 61.1429 38.8167 61.1429C29.9925 61.1429 22.8333 67.3049 22.8333 74.9V79.4857C22.8333 82.0174 25.2118 84.0714 28.1611 84.0714ZM85.625 68.7857H112.264C113.31 68.7857 114.167 67.9259 114.167 66.875V63.0536C114.167 62.0027 113.31 61.1429 112.264 61.1429H85.625C84.5785 61.1429 83.7222 62.0027 83.7222 63.0536V66.875C83.7222 67.9259 84.5785 68.7857 85.625 68.7857ZM85.625 53.5H112.264C113.31 53.5 114.167 52.6402 114.167 51.5893V47.7679C114.167 46.717 113.31 45.8571 112.264 45.8571H85.625C84.5785 45.8571 83.7222 46.717 83.7222 47.7679V51.5893C83.7222 52.6402 84.5785 53.5 85.625 53.5ZM85.625 38.2143H112.264C113.31 38.2143 114.167 37.3545 114.167 36.3036V32.4821C114.167 31.4312 113.31 30.5714 112.264 30.5714H85.625C84.5785 30.5714 83.7222 31.4312 83.7222 32.4821V36.3036C83.7222 37.3545 84.5785 38.2143 85.625 38.2143Z" fill="#EBEBEC"/>
</svg>
