<svg width="130" height="89" viewBox="0 0 130 89" fill="none" xmlns="http://www.w3.org/2000/svg">
<path d="M117.812 0H12.1875C5.45645 0 0 4.98076 0 11.125V77.875C0 84.0192 5.45645 89 12.1875 89H117.812C124.544 89 130 84.0192 130 77.875V11.125C130 4.98076 124.544 0 117.812 0ZM117.812 11.125V20.5824C112.119 24.8143 103.043 31.3948 83.64 45.2637C79.364 48.334 70.8937 55.7101 65 55.6241C59.1073 55.711 50.6342 48.3328 46.36 45.2637C26.9598 31.3968 17.8813 24.815 12.1875 20.5824V11.125H117.812ZM12.1875 77.875V34.8579C18.0055 39.0879 26.2562 45.0238 38.8319 54.0128C44.3815 58.0004 54.1003 66.8033 65 66.7498C75.8461 66.8033 85.4417 58.1281 91.1658 54.0147C103.741 45.0259 111.994 39.0884 117.812 34.8581V77.875H12.1875Z" fill="#EBEBEC"/>
</svg>
