<svg width="86" height="89" viewBox="0 0 86 89" fill="none" xmlns="http://www.w3.org/2000/svg">
<path d="M28.7649 69.0793C28.7649 69.4269 28.3661 69.7051 27.8633 69.7051C27.2911 69.7572 26.8923 69.4791 26.8923 69.0793C26.8923 68.7316 27.2911 68.4535 27.794 68.4535C28.3141 68.4014 28.7649 68.6795 28.7649 69.0793ZM23.3726 68.2971C23.2512 68.6447 23.598 69.0445 24.1181 69.1488C24.569 69.3227 25.0891 69.1488 25.1931 68.8012C25.2972 68.4535 24.9677 68.0537 24.4476 67.8973C23.9968 67.7756 23.494 67.9494 23.3726 68.2971ZM31.0363 68.0016C30.5335 68.1232 30.1867 68.4535 30.2387 68.8533C30.2907 69.201 30.7415 69.427 31.2617 69.3053C31.7645 69.1836 32.1113 68.8533 32.0593 68.5057C32.0073 68.1754 31.5391 67.9494 31.0363 68.0016ZM42.4452 1.39062C18.3964 1.39062 0 19.6947 0 43.8047C0 63.0822 12.1024 79.5785 29.3891 85.3844C31.6085 85.7842 32.3887 84.4109 32.3887 83.2811C32.3887 82.2033 32.3367 76.2584 32.3367 72.608C32.3367 72.608 20.1996 75.2154 17.6508 67.4279C17.6508 67.4279 15.6742 62.3695 12.8306 61.0658C12.8306 61.0658 8.86008 58.3367 13.1081 58.3889C13.1081 58.3889 17.4254 58.7365 19.8008 62.8736C23.598 69.5834 29.9613 67.6539 32.4407 66.5066C32.8395 63.7254 33.9665 61.7959 35.2149 60.6486C25.5226 59.5709 15.7435 58.1629 15.7435 41.4406C15.7435 36.6604 17.0613 34.2615 19.8355 31.2021C19.3847 30.0723 17.9109 25.4137 20.2863 19.3992C23.9101 18.2693 32.25 24.0926 32.25 24.0926C35.7177 23.1191 39.4456 22.615 43.1387 22.615C46.8319 22.615 50.5597 23.1191 54.0274 24.0926C54.0274 24.0926 62.3673 18.252 65.9911 19.3992C68.3665 25.4311 66.8927 30.0723 66.4419 31.2021C69.2161 34.2789 70.9153 36.6777 70.9153 41.4406C70.9153 58.215 60.7028 59.5535 51.0105 60.6486C52.6056 62.0219 53.9581 64.6293 53.9581 68.7143C53.9581 74.5723 53.906 81.8209 53.906 83.2463C53.906 84.3762 54.7036 85.7494 56.9056 85.3496C74.2444 79.5785 86 63.0822 86 43.8047C86 19.6947 66.4939 1.39062 42.4452 1.39062ZM16.8532 61.3439C16.6278 61.5178 16.6798 61.9176 16.9746 62.2479C17.252 62.526 17.6508 62.6477 17.8762 62.4217C18.1016 62.2479 18.0496 61.848 17.7548 61.5178C17.4774 61.2396 17.0786 61.118 16.8532 61.3439ZM14.9806 59.9359C14.8593 60.1619 15.0327 60.44 15.3794 60.6139C15.6569 60.7877 16.0036 60.7355 16.125 60.4922C16.2464 60.2662 16.073 59.9881 15.7262 59.8143C15.3794 59.71 15.102 59.7621 14.9806 59.9359ZM20.5984 66.1242C20.321 66.3502 20.425 66.8717 20.8238 67.202C21.2226 67.6018 21.7254 67.6539 21.9508 67.3758C22.1762 67.1498 22.0722 66.6283 21.7254 66.298C21.344 65.8982 20.8238 65.8461 20.5984 66.1242ZM18.6218 63.5689C18.3444 63.7428 18.3444 64.1947 18.6218 64.5945C18.8992 64.9943 19.3673 65.1682 19.5927 64.9943C19.8702 64.7684 19.8702 64.3164 19.5927 63.9166C19.35 63.5168 18.8992 63.343 18.6218 63.5689Z" fill="#EBEBEC"/>
</svg>
