<svg width="89" height="89" viewBox="0 0 89 89" fill="none" xmlns="http://www.w3.org/2000/svg">
<path d="M44.5099 21.6815C31.8822 21.6815 21.6965 31.8694 21.6965 44.5C21.6965 57.1306 31.8822 67.3185 44.5099 67.3185C57.1377 67.3185 67.3233 57.1306 67.3233 44.5C67.3233 31.8694 57.1377 21.6815 44.5099 21.6815ZM44.5099 59.335C36.3495 59.335 29.6782 52.6821 29.6782 44.5C29.6782 36.3179 36.3297 29.665 44.5099 29.665C52.6902 29.665 59.3416 36.3179 59.3416 44.5C59.3416 52.6821 52.6703 59.335 44.5099 59.335ZM73.5776 20.7481C73.5776 23.7072 71.195 26.0705 68.2565 26.0705C65.2981 26.0705 62.9354 23.6873 62.9354 20.7481C62.9354 17.8089 65.318 15.4258 68.2565 15.4258C71.195 15.4258 73.5776 17.8089 73.5776 20.7481ZM88.6873 26.1499C88.3497 19.0204 86.7216 12.7051 81.4998 7.5019C76.2978 2.29873 69.9839 0.670255 62.8559 0.312786C55.5096 -0.104262 33.4904 -0.104262 26.1441 0.312786C19.036 0.650396 12.7221 2.27887 7.50022 7.48204C2.27836 12.6852 0.670106 19.0005 0.312716 26.13C-0.104239 33.478 -0.104239 55.5021 0.312716 62.8501C0.650251 69.9796 2.27836 76.2949 7.50022 81.4981C12.7221 86.7013 19.0161 88.3297 26.1441 88.6872C33.4904 89.1043 55.5096 89.1043 62.8559 88.6872C69.9839 88.3496 76.2978 86.7211 81.4998 81.4981C86.7018 76.2949 88.3299 69.9796 88.6873 62.8501C89.1042 55.5021 89.1042 33.4979 88.6873 26.1499ZM79.1966 70.7343C77.6479 74.6267 74.6498 77.6255 70.7384 79.1944C64.8811 81.518 50.9827 80.9818 44.5099 80.9818C38.0372 80.9818 24.1189 81.4981 18.2815 79.1944C14.3899 77.6454 11.3918 74.6466 9.82326 70.7343C7.50022 64.8758 8.03631 50.9742 8.03631 44.5C8.03631 38.0258 7.52008 24.1044 9.82326 18.2657C11.3719 14.3733 14.37 11.3745 18.2815 9.80559C24.1387 7.48204 38.0372 8.01824 44.5099 8.01824C50.9827 8.01824 64.901 7.5019 70.7384 9.80559C74.63 11.3546 77.6281 14.3534 79.1966 18.2657C81.5196 24.1242 80.9835 38.0258 80.9835 44.5C80.9835 50.9742 81.5196 64.8956 79.1966 70.7343Z" fill="#EBEBEC"/>
</svg>
