<svg width="107" height="99" viewBox="0 0 107 99" fill="none" xmlns="http://www.w3.org/2000/svg">
<path d="M35.0295 21.8662H49.6862V71.1127C49.6862 75.64 48.6765 79.6461 46.6571 83.1312C44.6703 86.5836 41.853 89.2544 38.2051 91.1435C34.5572 93.0326 30.4371 93.9771 25.8446 93.9771C18.3209 93.9771 12.4582 92.0717 8.2566 88.261C4.05502 84.4177 1.95423 78.9947 1.95423 71.9921H16.7086C16.7086 75.4771 17.4415 78.0502 18.9071 79.7113C20.3728 81.3724 22.6853 82.2029 25.8446 82.2029C28.6457 82.2029 30.8768 81.2421 32.5379 79.3204C34.1989 77.3988 35.0295 74.6629 35.0295 71.1127V21.8662ZM48.7345 93V21.8662H73.6508C82.282 21.8662 88.8287 23.5273 93.2908 26.8495C97.753 30.1391 99.984 34.9758 99.984 41.3596C99.984 44.8446 99.0883 47.9225 97.297 50.5933C95.5056 53.2315 93.014 55.1695 89.8221 56.4071C93.4699 57.3191 96.3361 59.1593 98.4206 61.9278C100.538 64.6963 101.596 68.0836 101.596 72.0898C101.596 78.9296 99.414 84.1083 95.0496 87.6259C90.6852 91.1435 84.4642 92.9349 76.3868 93H48.7345ZM63.3912 62.0255V81.2258H75.9471C79.3995 81.2258 82.0866 80.4115 84.0082 78.783C85.9625 77.1219 86.9396 74.842 86.9396 71.9432C86.9396 65.4291 83.5685 62.1232 76.8265 62.0255H63.3912ZM63.3912 51.6681H74.2371C81.6306 51.5379 85.3273 48.5902 85.3273 42.8253C85.3273 39.6008 84.3828 37.2883 82.4937 35.8878C80.6372 34.4547 77.6896 33.7381 73.6508 33.7381H63.3912V51.6681Z" fill="#F1BD35"/>
<rect x="42" y="69" width="13" height="24" fill="#F1BD35"/>
<rect x="25" y="94" width="6" height="53" transform="rotate(-90 25 94)" fill="#F1BD35"/>
<ellipse cx="79.5344" cy="89.0586" rx="8.5" ry="5" transform="rotate(0.39557 79.5344 89.0586)" fill="#F1BD35"/>
</svg>
