<svg width="89" height="89" viewBox="0 0 89 89" fill="none" xmlns="http://www.w3.org/2000/svg">
<path d="M19.9217 89H1.47009V29.5793H19.9217V89ZM10.686 21.4737C4.78574 21.4737 0 16.5866 0 10.6862C4.22313e-08 7.85204 1.12584 5.13397 3.12985 3.12991C5.13385 1.12586 7.85187 0 10.686 0C13.5201 0 16.2381 1.12586 18.2421 3.12991C20.2461 5.13397 21.3719 7.85204 21.3719 10.6862C21.3719 16.5866 16.5842 21.4737 10.686 21.4737ZM88.9801 89H70.5683V60.0744C70.5683 53.1807 70.4292 44.3401 60.9749 44.3401C51.3816 44.3401 49.9115 51.8298 49.9115 59.5777V89H31.4798V29.5793H49.1765V37.6848H49.4347C51.8981 33.0162 57.9156 28.0893 66.893 28.0893C85.5671 28.0893 89 40.3866 89 56.3593V89H88.9801Z" fill="#EBEBEC"/>
</svg>
