<svg width="89" height="89" viewBox="0 0 89 89" fill="none" xmlns="http://www.w3.org/2000/svg">
<path d="M85.2047 6.71394L85.208 6.71469C85.9616 6.88753 86.5 7.55868 86.5 8.34545C86.5 51.5493 51.4826 86.5 8.34539 86.5C7.55803 86.5 6.88906 85.96 6.71366 85.2038C6.71361 85.2036 6.71355 85.2033 6.71349 85.2031L2.54245 67.1285C2.36459 66.3556 2.76446 65.5278 3.53714 65.184C3.53978 65.1828 3.54242 65.1816 3.54506 65.1805L22.9928 56.8459C23.6664 56.5572 24.4596 56.7447 24.9405 57.3308C24.9405 57.3309 24.9406 57.3309 24.9406 57.331C24.9408 57.3312 24.941 57.3315 24.9412 57.3317L33.5622 67.8646L34.7952 69.371L36.5578 68.5448C50.7038 61.9144 62.0591 50.3957 68.5616 36.5417L69.3892 34.7785L67.8819 33.5448L57.3482 24.9232L57.3416 24.9178L57.335 24.9125C56.7721 24.4581 56.5701 23.6595 56.8632 22.9755L65.2023 3.51757C65.2029 3.5162 65.2035 3.51484 65.2041 3.51348C65.527 2.77483 66.3438 2.36276 67.127 2.54215C67.127 2.54217 67.1271 2.54218 67.1271 2.5422C67.1276 2.5423 67.1281 2.54241 67.1285 2.54252L85.2047 6.71394Z" stroke="#EBEBEC" stroke-width="5"/>
</svg>
